<?xml version="1.0" encoding="UTF-8"?>
<svg width="700pt" height="700pt" version="1.1" viewBox="0 0 700 600" xmlns="http://www.w3.org/2000/svg" fill="#FFF" xmlns:xlink="http://www.w3.org/1999/xlink">
 <defs>
  <symbol id="w" overflow="visible">
   <path d="m3.3125-0.20312c-0.17969 0.09375-0.35938 0.16406-0.54688 0.20312-0.17969 0.039062-0.36719 0.0625-0.5625 0.0625-0.60547 0-1.0859-0.16406-1.4375-0.5-0.34375-0.33203-0.51562-0.78516-0.51562-1.3594 0-0.57031 0.17188-1.0234 0.51562-1.3594 0.35156-0.34375 0.83203-0.51562 1.4375-0.51562 0.19531 0 0.38281 0.027344 0.5625 0.078125 0.1875 0.042969 0.36719 0.10938 0.54688 0.20312v0.73438c-0.17969-0.11328-0.35156-0.19531-0.51562-0.25-0.16797-0.050781-0.34375-0.078125-0.53125-0.078125-0.32422 0-0.58594 0.10547-0.78125 0.3125-0.1875 0.21094-0.28125 0.5-0.28125 0.875s0.09375 0.66797 0.28125 0.875c0.19531 0.21094 0.45703 0.3125 0.78125 0.3125 0.1875 0 0.36328-0.023437 0.53125-0.078125 0.16406-0.050781 0.33594-0.13281 0.51562-0.25z"/>
  </symbol>
  <symbol id="b" overflow="visible">
   <path d="m2.4219-1.9688c-0.074219-0.03125-0.15234-0.050781-0.23438-0.0625-0.074219-0.019531-0.14844-0.03125-0.21875-0.03125-0.21875 0-0.39062 0.074219-0.51562 0.21875-0.11719 0.13672-0.17188 0.33594-0.17188 0.59375v1.25h-0.85938v-2.7031h0.85938v0.45312c0.10156-0.17578 0.22656-0.30469 0.375-0.39062 0.14453-0.082031 0.31641-0.125 0.51562-0.125h0.09375c0.039063 0 0.09375 0.007813 0.15625 0.015625z"/>
  </symbol>
  <symbol id="a" overflow="visible">
   <path d="m3.1094-1.3594v0.25h-2.0156c0.019531 0.19922 0.09375 0.35156 0.21875 0.45312 0.125 0.10547 0.30078 0.15625 0.53125 0.15625 0.17578 0 0.35938-0.023438 0.54688-0.078125 0.19531-0.0625 0.39453-0.14453 0.59375-0.25v0.67188c-0.21094 0.074219-0.41797 0.125-0.625 0.15625-0.19922 0.039062-0.40234 0.0625-0.60938 0.0625-0.48047 0-0.85547-0.11719-1.125-0.35938-0.27344-0.25-0.40625-0.59766-0.40625-1.0469 0-0.44531 0.12891-0.79688 0.39062-1.0469 0.26953-0.25 0.63281-0.375 1.0938-0.375 0.42578 0 0.76562 0.13281 1.0156 0.39062 0.25781 0.25 0.39062 0.58984 0.39062 1.0156zm-0.89062-0.28125c0-0.16406-0.046875-0.29688-0.14062-0.39062-0.09375-0.10156-0.21875-0.15625-0.375-0.15625-0.16797 0-0.30469 0.046875-0.40625 0.14062-0.10547 0.09375-0.16797 0.23047-0.1875 0.40625z"/>
  </symbol>
  <symbol id="l" overflow="visible">
   <path d="m1.625-1.2188c-0.17969 0-0.3125 0.03125-0.40625 0.09375s-0.14062 0.15234-0.14062 0.26562c0 0.11719 0.035156 0.20312 0.10938 0.26562 0.070312 0.0625 0.17578 0.09375 0.3125 0.09375 0.15625 0 0.28906-0.054688 0.40625-0.17188 0.11328-0.125 0.17188-0.26953 0.17188-0.4375v-0.10938zm1.3125-0.32812v1.5469h-0.85938v-0.40625c-0.11719 0.16797-0.24609 0.28906-0.39062 0.35938-0.14844 0.070312-0.32422 0.10938-0.53125 0.10938-0.28125 0-0.51172-0.078125-0.6875-0.23438-0.16797-0.16406-0.25-0.37891-0.25-0.64062 0-0.3125 0.10156-0.53906 0.3125-0.6875 0.21875-0.15625 0.5625-0.23438 1.0312-0.23438h0.51562v-0.0625c0-0.13281-0.058594-0.23438-0.17188-0.29688-0.10547-0.0625-0.27344-0.09375-0.5-0.09375-0.1875 0-0.35938 0.023438-0.51562 0.0625-0.15625 0.03125-0.30469 0.085938-0.4375 0.15625v-0.65625c0.17578-0.050781 0.35938-0.085938 0.54688-0.10938 0.1875-0.019531 0.375-0.03125 0.5625-0.03125 0.48828 0 0.83594 0.10156 1.0469 0.29688 0.21875 0.1875 0.32812 0.49609 0.32812 0.92188z"/>
  </symbol>
  <symbol id="c" overflow="visible">
   <path d="m1.3594-3.4688v0.76562h0.89062v0.625h-0.89062v1.1406c0 0.125 0.019531 0.21094 0.0625 0.25 0.050781 0.042969 0.15625 0.0625 0.3125 0.0625h0.4375v0.625h-0.73438c-0.34375 0-0.58984-0.066406-0.73438-0.20312-0.13672-0.14453-0.20312-0.39062-0.20312-0.73438v-1.1406h-0.4375v-0.625h0.4375v-0.76562z"/>
  </symbol>
  <symbol id="k" overflow="visible">
   <path d="m2.25-2.3125v-1.4375h0.875v3.75h-0.875v-0.39062c-0.11719 0.15625-0.24609 0.27344-0.39062 0.34375-0.14844 0.070312-0.3125 0.10938-0.5 0.10938-0.33594 0-0.60938-0.12891-0.82812-0.39062-0.21094-0.25781-0.3125-0.59766-0.3125-1.0156 0-0.41406 0.10156-0.75391 0.3125-1.0156 0.21875-0.26953 0.49219-0.40625 0.82812-0.40625 0.1875 0 0.35156 0.039063 0.5 0.10938 0.14453 0.074219 0.27344 0.1875 0.39062 0.34375zm-0.5625 1.75c0.17578 0 0.3125-0.066406 0.40625-0.20312 0.10156-0.13281 0.15625-0.32812 0.15625-0.57812 0-0.25781-0.054688-0.45703-0.15625-0.59375-0.09375-0.13281-0.23047-0.20312-0.40625-0.20312-0.1875 0-0.33594 0.070313-0.4375 0.20312-0.09375 0.13672-0.14062 0.33594-0.14062 0.59375 0 0.25 0.046875 0.44531 0.14062 0.57812 0.10156 0.13672 0.25 0.20312 0.4375 0.20312z"/>
  </symbol>
  <symbol id="j" overflow="visible">
   <path d="m1.8594-0.5625c0.17578 0 0.3125-0.066406 0.40625-0.20312 0.10156-0.13281 0.15625-0.32812 0.15625-0.57812 0-0.25781-0.054687-0.45703-0.15625-0.59375-0.09375-0.13281-0.23047-0.20312-0.40625-0.20312-0.1875 0-0.33594 0.070313-0.4375 0.20312-0.09375 0.13672-0.14062 0.33594-0.14062 0.59375 0 0.25 0.046875 0.44531 0.14062 0.57812 0.10156 0.13672 0.25 0.20312 0.4375 0.20312zm-0.57812-1.75c0.11328-0.15625 0.24219-0.26953 0.39062-0.34375 0.14453-0.070312 0.3125-0.10938 0.5-0.10938 0.33203 0 0.60156 0.13672 0.8125 0.40625 0.21875 0.26172 0.32812 0.60156 0.32812 1.0156 0 0.41797-0.10938 0.75781-0.32812 1.0156-0.21094 0.26172-0.48047 0.39062-0.8125 0.39062-0.1875 0-0.35547-0.039062-0.5-0.10938-0.14844-0.070313-0.27734-0.1875-0.39062-0.34375v0.39062h-0.85938v-3.75h0.85938z"/>
  </symbol>
  <symbol id="i" overflow="visible">
   <path d="m0.0625-2.7031h0.85938l0.73438 1.8281 0.60938-1.8281h0.85938l-1.125 2.9531c-0.11719 0.30078-0.25 0.50781-0.40625 0.625-0.15625 0.125-0.35547 0.1875-0.59375 0.1875h-0.5v-0.5625h0.26562c0.14453 0 0.25-0.027344 0.3125-0.078125 0.070313-0.042969 0.125-0.125 0.15625-0.25l0.03125-0.0625z"/>
  </symbol>
  <symbol id="h" overflow="visible">
   <path d="m0.45312-3.5938h2.5v0.70312h-1.5781v0.65625h1.4844v0.70312h-1.4844v0.82812h1.6406v0.70312h-2.5625z"/>
  </symbol>
  <symbol id="v" overflow="visible">
   <path d="m0.42188-2.7031h0.85938v2.7031h-0.85938zm0-1.0469h0.85938v0.70312h-0.85938z"/>
  </symbol>
  <symbol id="u" overflow="visible">
   <path d="m0.42188-3.75h0.85938v2.0469l0.98438-1h1.0156l-1.3281 1.2344 1.4219 1.4688h-1.0469l-1.0469-1.125v1.125h-0.85938z"/>
  </symbol>
  <symbol id="t" overflow="visible">
   <path d="m2.9531-3.4844v0.76562c-0.19922-0.09375-0.39062-0.16016-0.57812-0.20312-0.1875-0.039063-0.36719-0.0625-0.53125-0.0625-0.21875 0-0.38281 0.03125-0.48438 0.09375-0.10547 0.054687-0.15625 0.14844-0.15625 0.28125 0 0.09375 0.03125 0.16797 0.09375 0.21875 0.070313 0.054687 0.20312 0.10156 0.39062 0.14062l0.40625 0.078125c0.39453 0.085937 0.67578 0.21094 0.84375 0.375 0.16406 0.15625 0.25 0.38672 0.25 0.6875 0 0.39844-0.12109 0.69531-0.35938 0.89062-0.23047 0.1875-0.58594 0.28125-1.0625 0.28125-0.23047 0-0.46094-0.023438-0.6875-0.0625-0.23047-0.039062-0.46094-0.10156-0.6875-0.1875v-0.78125c0.22656 0.125 0.44531 0.21875 0.65625 0.28125 0.21875 0.054688 0.42578 0.078125 0.625 0.078125 0.20703 0 0.36328-0.03125 0.46875-0.09375 0.10156-0.070313 0.15625-0.17188 0.15625-0.29688 0-0.10156-0.039063-0.1875-0.10938-0.25-0.074219-0.0625-0.21875-0.11719-0.4375-0.17188l-0.35938-0.078125c-0.35547-0.070312-0.61719-0.19141-0.78125-0.35938-0.16797-0.17578-0.25-0.40625-0.25-0.6875 0-0.36328 0.11328-0.64062 0.34375-0.82812 0.22656-0.19531 0.5625-0.29688 1-0.29688 0.19531 0 0.39844 0.015625 0.60938 0.046875 0.20703 0.03125 0.42188 0.078125 0.64062 0.14062z"/>
  </symbol>
  <symbol id="g" overflow="visible">
   <path d="m2.5938-2.6094v0.70312c-0.11719-0.082031-0.23438-0.14062-0.35938-0.17188-0.11719-0.039063-0.23438-0.0625-0.35938-0.0625-0.24219 0-0.42969 0.074219-0.5625 0.21875-0.13672 0.13672-0.20312 0.32812-0.20312 0.57812s0.066406 0.44922 0.20312 0.59375c0.13281 0.13672 0.32031 0.20312 0.5625 0.20312 0.13281 0 0.25781-0.019531 0.375-0.0625 0.125-0.039063 0.23828-0.097656 0.34375-0.17188v0.70312c-0.13672 0.054688-0.27344 0.085938-0.40625 0.10938-0.13672 0.019531-0.27734 0.03125-0.42188 0.03125-0.49219 0-0.87109-0.125-1.1406-0.375-0.27344-0.25-0.40625-0.59375-0.40625-1.0312 0-0.44531 0.13281-0.79688 0.40625-1.0469 0.26953-0.25 0.64844-0.375 1.1406-0.375 0.14453 0 0.28516 0.015625 0.42188 0.046875 0.13281 0.023438 0.26953 0.058594 0.40625 0.10938z"/>
  </symbol>
  <symbol id="f" overflow="visible">
   <path d="m3.125-1.6406v1.6406h-0.85938v-1.25c0-0.23828-0.007813-0.39844-0.015625-0.48438-0.011719-0.09375-0.03125-0.16016-0.0625-0.20312-0.03125-0.050781-0.078125-0.09375-0.14062-0.125-0.054687-0.03125-0.11719-0.046875-0.1875-0.046875-0.17969 0-0.32031 0.070313-0.42188 0.20312-0.10547 0.13672-0.15625 0.32812-0.15625 0.57812v1.3281h-0.85938v-3.75h0.85938v1.4375c0.125-0.15625 0.25781-0.26953 0.40625-0.34375 0.14453-0.070312 0.30469-0.10938 0.48438-0.10938 0.3125 0 0.54688 0.10156 0.70312 0.29688 0.16406 0.1875 0.25 0.46484 0.25 0.82812z"/>
  </symbol>
  <symbol id="s" overflow="visible">
   <path d="m1.625-1.2188c-0.17969 0-0.3125 0.03125-0.40625 0.09375s-0.14062 0.15234-0.14062 0.26562c0 0.11719 0.035156 0.20312 0.10938 0.26562 0.070312 0.0625 0.17578 0.09375 0.3125 0.09375 0.15625 0 0.28906-0.054688 0.40625-0.17188 0.11328-0.125 0.17188-0.26953 0.17188-0.4375v-0.10938zm1.3125-0.32812v1.5469h-0.85938v-0.40625c-0.11719 0.16797-0.24609 0.28906-0.39062 0.35938-0.14844 0.070312-0.32422 0.10938-0.53125 0.10938-0.28125 0-0.51172-0.078125-0.6875-0.23438-0.16797-0.16406-0.25-0.37891-0.25-0.64062 0-0.3125 0.10156-0.53906 0.3125-0.6875 0.21875-0.15625 0.5625-0.23438 1.0312-0.23438h0.51562v-0.0625c0-0.13281-0.058594-0.23438-0.17188-0.29688-0.10547-0.0625-0.27344-0.09375-0.5-0.09375-0.1875 0-0.35938 0.023438-0.51562 0.0625-0.15625 0.03125-0.30469 0.085938-0.4375 0.15625v-0.65625c0.17578-0.050781 0.35938-0.085938 0.54688-0.10938 0.1875-0.019531 0.375-0.03125 0.5625-0.03125 0.48828 0 0.83594 0.10156 1.0469 0.29688 0.21875 0.1875 0.32812 0.49609 0.32812 0.92188zm-2.4688-2.2812h0.57812v0.59375h-0.57812zm0.95312 0h0.57812v0.59375h-0.57812z"/>
  </symbol>
  <symbol id="e" overflow="visible">
   <path d="m2.1875-3.75v0.5625h-0.46875c-0.125 0-0.21484 0.027344-0.26562 0.078125-0.042969 0.042969-0.0625 0.11719-0.0625 0.21875v0.1875h0.73438v0.625h-0.73438v2.0781h-0.875v-2.0781h-0.42188v-0.625h0.42188v-0.1875c0-0.28906 0.082031-0.50391 0.25-0.64062 0.16406-0.14453 0.42188-0.21875 0.76562-0.21875z"/>
  </symbol>
  <symbol id="d" overflow="visible">
   <path d="m1.7031-2.1406c-0.19922 0-0.35156 0.070313-0.45312 0.20312-0.09375 0.13672-0.14062 0.33594-0.14062 0.59375 0 0.26172 0.046875 0.46094 0.14062 0.59375 0.10156 0.13672 0.25391 0.20312 0.45312 0.20312 0.1875 0 0.32812-0.066406 0.42188-0.20312 0.10156-0.13281 0.15625-0.33203 0.15625-0.59375 0-0.25781-0.054688-0.45703-0.15625-0.59375-0.09375-0.13281-0.23438-0.20312-0.42188-0.20312zm0-0.625c0.45703 0 0.81641 0.125 1.0781 0.375 0.26953 0.25 0.40625 0.60156 0.40625 1.0469 0 0.4375-0.13672 0.78125-0.40625 1.0312-0.26172 0.25-0.62109 0.375-1.0781 0.375-0.46875 0-0.83594-0.125-1.0938-0.375-0.26172-0.25-0.39062-0.59375-0.39062-1.0312 0-0.44531 0.12891-0.79688 0.39062-1.0469 0.25781-0.25 0.625-0.375 1.0938-0.375z"/>
  </symbol>
  <symbol id="r" overflow="visible">
   <path d="m2.9219-2.25c0.10156-0.16406 0.22656-0.28906 0.375-0.375 0.15625-0.09375 0.32031-0.14062 0.5-0.14062 0.3125 0 0.54688 0.10156 0.70312 0.29688 0.16406 0.1875 0.25 0.46484 0.25 0.82812v1.6406h-0.85938v-1.4062-0.0625-0.09375c0-0.19531-0.03125-0.33594-0.09375-0.42188-0.054687-0.082031-0.14062-0.125-0.26562-0.125-0.16797 0-0.29688 0.070313-0.39062 0.20312-0.085937 0.13672-0.125 0.32812-0.125 0.57812v1.3281h-0.875v-1.4062c0-0.30078-0.027344-0.49219-0.078125-0.57812-0.042969-0.082031-0.13281-0.125-0.26562-0.125-0.16797 0-0.29688 0.070313-0.39062 0.20312-0.085938 0.13672-0.125 0.32812-0.125 0.57812v1.3281h-0.875v-2.7031h0.875v0.39062c0.10156-0.14453 0.22266-0.25391 0.35938-0.32812 0.13281-0.082031 0.28516-0.125 0.45312-0.125 0.1875 0 0.35156 0.046875 0.5 0.14062 0.14453 0.085938 0.25391 0.21094 0.32812 0.375z"/>
  </symbol>
  <symbol id="q" overflow="visible">
   <path d="m0.45312-3.5938h1.0312l1.3125 2.4688v-2.4688h0.875v3.5938h-1.0312l-1.3125-2.4688v2.4688h-0.875z"/>
  </symbol>
  <symbol id="p" overflow="visible">
   <path d="m0.39062-1.0469v-1.6562h0.85938v0.26562 0.5625 0.4375c0 0.21875 0.003906 0.375 0.015625 0.46875 0.007813 0.09375 0.03125 0.16406 0.0625 0.20312 0.03125 0.0625 0.070313 0.10938 0.125 0.14062 0.0625 0.03125 0.12891 0.046875 0.20312 0.046875 0.17578 0 0.31641-0.066406 0.42188-0.20312 0.10156-0.14453 0.15625-0.33594 0.15625-0.57812v-1.3438h0.85938v2.7031h-0.85938v-0.39062c-0.125 0.15625-0.26172 0.27344-0.40625 0.34375-0.14844 0.070312-0.30859 0.10938-0.48438 0.10938-0.3125 0-0.55469-0.09375-0.71875-0.28125-0.15625-0.1875-0.23438-0.46094-0.23438-0.82812z"/>
  </symbol>
  <symbol id="o" overflow="visible">
   <path d="m3.125-1.6406v1.6406h-0.85938v-1.2656c0-0.22656-0.007813-0.38281-0.015625-0.46875-0.011719-0.09375-0.03125-0.16016-0.0625-0.20312-0.03125-0.050781-0.078125-0.09375-0.14062-0.125-0.054687-0.03125-0.11719-0.046875-0.1875-0.046875-0.17969 0-0.32031 0.070313-0.42188 0.20312-0.10547 0.13672-0.15625 0.32812-0.15625 0.57812v1.3281h-0.85938v-2.7031h0.85938v0.39062c0.125-0.15625 0.25781-0.26953 0.40625-0.34375 0.14453-0.070312 0.30469-0.10938 0.48438-0.10938 0.3125 0 0.54688 0.10156 0.70312 0.29688 0.16406 0.1875 0.25 0.46484 0.25 0.82812z"/>
  </symbol>
  <symbol id="n" overflow="visible">
   <path d="m0.45312-3.5938h1.5469c0.45703 0 0.80469 0.10547 1.0469 0.3125 0.25 0.19922 0.375 0.48438 0.375 0.85938s-0.125 0.66797-0.375 0.875c-0.24219 0.19922-0.58984 0.29688-1.0469 0.29688h-0.625v1.25h-0.92188zm0.92188 0.67188v1h0.51562c0.1875 0 0.32812-0.039063 0.42188-0.125 0.09375-0.09375 0.14062-0.21875 0.14062-0.375 0-0.16406-0.046875-0.28906-0.14062-0.375-0.09375-0.082031-0.23438-0.125-0.42188-0.125z"/>
  </symbol>
  <symbol id="m" overflow="visible">
   <path d="m0.42188-2.7031h0.85938v2.6562c0 0.36328-0.089844 0.64062-0.26562 0.82812-0.17969 0.1875-0.42969 0.28125-0.75 0.28125h-0.42188v-0.5625h0.14062c0.16406 0 0.28125-0.039062 0.34375-0.10938 0.0625-0.074219 0.09375-0.21875 0.09375-0.4375zm0-1.0469h0.85938v0.70312h-0.85938z"/>
  </symbol>
 </defs>
 <g>
  <path d="m417.4 254.09c-0.18359-2.3242-1.3828-4.4492-3.2812-5.8047-1.4062-0.91406-3.0547-1.3906-4.7305-1.375-8.3555-0.5625-16.703-1.207-25.051-1.8281l-11.309-0.83984c-2.457-6.0703-5.3555-11.953-8.6758-17.602-0.12891-0.33984-0.10547-0.72266 0.070312-1.0469 0.85938-1.4336 1.7773-2.8359 2.6758-4.2461l16.328-25.535c0.70312-1.0977 1.4727-2.1641 2.0625-3.3086 1.3516-2.6367 0.49219-6.1914-2.043-8.4258-11.629-10.219-23.273-20.426-34.93-30.621-2.9648-2.5977-6.0469-2.8164-9.2461-0.46484-4.1875 3.082-8.3359 6.2422-12.309 9.5898-5.8281 4.9375-11.488 10.027-17.246 15.023l0.003906 0.003906c-0.32031 0.23438-0.73438 0.30469-1.1172 0.19531-5.8711-2.5-11.934-4.5234-18.133-6.043-0.46094-0.070313-0.80859-0.44922-0.83984-0.91016-1.4883-7.7656-2.9883-15.527-4.5039-23.293-0.76953-3.9492-1.5312-7.9805-2.3516-11.953-0.72266-3.5273-2.7461-5.7695-6.4414-6.2148-2.125-0.25781-4.2461-0.53516-6.3828-0.60156l0.003906 0.003906c-9.0312-0.16797-18.062 0.24609-27.035 1.2422-5.668 0.55469-11.32 1.4219-16.949 2.3008l-0.003906 0.003906c-1.4297 0.25781-2.7969 0.79688-4.0195 1.5898-2.1133 1.332-2.6172 3.5742-2.707 5.9258-0.089844 2.3516-0.097657 4.7109-0.24609 7.0625-0.59375 9.4336-1.2266 18.875-1.8359 28.309 0.054688 0.49609-0.25391 0.96094-0.73047 1.1055-6.082 2.2344-11.926 5.0586-17.457 8.4258-0.37891 0.27734-0.89844 0.24609-1.2422-0.066407-2.2031-1.4531-4.4141-2.8633-6.6367-4.2852-7.9805-5.1172-16.004-10.176-23.926-15.391-2.5078-1.6484-4.9375-2.293-7.7852-1.1641v-0.003907c-1.293 0.53125-2.4375 1.3711-3.3359 2.4414-9.9531 11.352-19.891 22.695-29.824 34.027-0.30469 0.34766-0.60156 0.71094-0.87891 1.0859-1.9141 2.6172-1.8594 6.1875 0.14062 8.7422 4.7305 5.6094 9.5117 11.191 14.273 16.793l10.113 11.852c0.39453 0.30859 0.51562 0.85156 0.28516 1.2969-2.9141 6.332-5.1602 12.953-6.6953 19.754-0.0625 0.45703-0.42969 0.80859-0.89063 0.85156-4.2266 0.83984-8.4453 1.7305-12.672 2.5664-7.2617 1.4609-14.551 2.875-21.801 4.4258-3.6484 0.66016-6.3477 3.7695-6.4883 7.4766-0.45312 6.25-0.41016 12.527 0.12891 18.77 0.85938 10.023 1.8477 20.031 2.7734 30.059 0.38281 3.707 3.4453 6.5625 7.1719 6.6875 12.09 0.82812 24.191 1.6875 36.281 2.5195v-0.003907c0.46484-0.011718 0.875 0.30078 0.98828 0.75391 2.3398 5.7734 5.1172 11.359 8.3086 16.711 0.32812 0.41406 0.32812 1 0 1.4141-1.6484 2.5078-3.2578 5.0586-4.8711 7.5859-5.207 8.1484-10.383 16.309-15.617 24.438-1.0547 1.5547-1.3945 3.4922-0.92969 5.3125 0.42578 1.6953 1.3867 3.2109 2.7383 4.3164 11.445 10.004 22.895 20.012 34.344 30.031 3.2383 2.8359 6.3398 3.1016 9.7578 0.50391 4.9375-3.7227 9.7695-7.5273 14.492-11.477 5.0195-4.1992 9.8789-8.5938 14.758-12.93v-0.003907c0.32422-0.37109 0.86719-0.46094 1.293-0.21875 5.75 2.4883 11.695 4.4883 17.781 5.9766 0.60938 0.066406 1.0859 0.5625 1.125 1.1758 2.1328 11.434 4.2852 22.855 6.4609 34.277 0.80078 4.2266 2.9648 6.332 7.1406 7.0508 0.42969 0.074219 0.85547 0.13672 1.2852 0.1875 5.5586 0.53125 11.152 0.58594 16.723 0.16016 10.805-0.61328 21.602-1.3438 32.281-3.3281 3.7734-0.51172 6.5859-3.7383 6.5781-7.5469 0.097657-2.8828 0.16797-5.7695 0.34766-8.6445 0.5625-8.9688 1.1758-17.949 1.75-26.918h-0.003907c-0.027343-0.53125 0.33203-1.0039 0.85156-1.125 1.375-0.48047 2.7227-1.0312 4.0391-1.6602 4.3672-2.1445 8.7031-4.3281 13.039-6.5273 0.41406-0.32031 0.99609-0.32031 1.4102 0 0.89844 0.65234 1.875 1.1953 2.8242 1.7969l26.672 17.109c1.0156 0.72266 2.0742 1.3828 3.1719 1.9766 2.7773 1.332 6.5273 0.34766 8.832-2.2812 7.9805-9.0938 15.957-18.191 23.926-27.293 2.125-2.4297 4.2773-4.832 6.3711-7.2891l-0.003906-0.003907c2.4648-2.668 2.5898-6.7422 0.29688-9.5586-3.7031-4.4531-7.4492-8.8906-11.18-13.305-4.3086-5.125-8.6211-10.238-12.941-15.352-0.44141-0.42969-0.53125-1.1016-0.21875-1.6289 2.6602-6.1602 4.8047-12.531 6.4023-19.047 0.066406-0.61719 0.5625-1.1016 1.1836-1.1562 8.3086-1.6016 16.617-3.2227 24.922-4.8711 3.0703-0.60156 6.1328-1.293 9.1953-1.8984 3.832-0.76172 6.5078-4.1797 6.4883-7.3672 0-2.8438 0.28516-5.6992 0.26563-8.5547-0.125-13.352-1.4883-26.625-2.8398-39.895zm-156.63 116.32c-21.656 0-42.43-8.6055-57.742-23.918-15.312-15.316-23.918-36.086-23.918-57.742 0-21.66 8.6055-42.43 23.918-57.742 15.312-15.316 36.086-23.918 57.742-23.918s42.426 8.6016 57.742 23.918c15.312 15.312 23.918 36.082 23.918 57.742 0 21.656-8.6055 42.426-23.918 57.742-15.316 15.312-36.086 23.918-57.742 23.918z"/>
  <path d="m252.9 355.6c38.375 4.1875 73.016-22.363 77.363-59.266 4.3477-36.902-23.242-70.27-61.617-74.449-38.375-4.1797-73.016 22.363-77.363 59.266-4.3477 36.906 23.242 70.301 61.617 74.449zm14.906-126.64c34.297 3.7422 58.949 33.523 55.07 66.535-3.8828 33.012-34.84 56.738-69.145 52.996-34.305-3.7422-58.949-33.523-55.07-66.535s34.848-56.734 69.141-52.953z"/>
  <path d="m261.57 237.34c-29.504-0.42578-53.773 22.254-54.219 50.645-0.44531 28.391 23.125 51.75 52.617 52.176 29.496 0.42578 53.773-22.254 54.219-50.645s-23.125-51.75-52.617-52.176zm0.5625 79.535-0.14844 9.2461-7.6445-0.10938 0.13672-8.7109c-5.8789-0.26563-11.727-1.9766-15.055-4.168l2.6484-8.4062c4.4023 2.5859 9.3867 4.0156 14.492 4.1562 5.8789 0.089843 9.9258-2.6367 9.9961-6.9141 0.058594-4.0391-3.1602-6.6875-10.027-9.2148-9.7383-3.5547-16.012-7.9531-15.883-16.297 0.11719-7.7227 5.8086-13.562 15.25-15.043l0.13672-8.8008 7.6445 0.10937-0.12891 8.3477 0.003907-0.003907c4.457 0.10547 8.8398 1.1797 12.84 3.1484l-2.6484 8.2188h0.003906c-3.9062-2.0352-8.2305-3.1406-12.637-3.2305-6.5273-0.089843-8.8906 3.1016-8.9609 6.1523-0.058594 3.6836 3.2695 5.7969 11.152 8.9609 10.391 3.9492 14.977 8.832 14.816 16.793-0.09375 7.6445-5.707 14.293-15.988 15.766z"/>
  <path d="m583.09 133.94c-0.5-1.3164-1.5625-2.3438-2.8945-2.8047-0.96484-0.28906-1.9961-0.28906-2.9609 0-4.9375 1.0977-9.8789 2.1445-14.816 3.2109l-6.6953 1.4414h-0.003906c-2.4609-3.0977-5.1484-6.0156-8.0391-8.7227-0.13672-0.17578-0.1875-0.40234-0.14063-0.62109 0.24609-0.98828 0.54297-1.9766 0.82813-2.9648l5.1055-17.594c0.21875-0.76172 0.48438-1.5 0.63281-2.2734l0.003906 0.003907c0.24219-1.9258-0.82812-3.7773-2.6172-4.5352-8.4883-3.9492-16.98-7.8828-25.477-11.793-1.8711-1.0859-4.2695-0.50781-5.4414 1.3164-1.9062 2.5-3.7734 5.0391-5.5 7.6641-2.5469 3.8438-4.9375 7.7734-7.4375 11.656h-0.003907c-0.14453 0.19141-0.37109 0.30078-0.60937 0.30469-3.832-0.44922-7.6953-0.58984-11.547-0.41406-0.28125 0.039063-0.54687-0.12109-0.64453-0.38672-2.1875-4.2461-4.3828-8.4922-6.5898-12.734-1.125-2.1836-2.2539-4.3672-3.3984-6.5273h0.003906c-0.79297-1.875-2.8086-2.9297-4.8008-2.5078-1.2734 0.21875-2.5586 0.41406-3.8047 0.74219-5.2656 1.4414-10.434 3.2227-15.469 5.332-3.1914 1.293-6.3203 2.7578-9.4336 4.2266-0.78516 0.39844-1.4805 0.94531-2.0547 1.6133-0.84766 1.1094-1.0625 2.582-0.5625 3.8906 0.34766 1.3828 0.75 2.7578 1.0664 4.1406 1.2656 5.5703 2.5078 11.152 3.7617 16.734l0.003907-0.003906c0.11328 0.28125 0.015624 0.60547-0.23828 0.76953-3.1445 2.3438-6.0547 4.9922-8.6836 7.9023-0.17187 0.22266-0.47656 0.29297-0.73047 0.16797-1.5195-0.46484-3.0508-0.91016-4.582-1.3516-5.5-1.6094-11.016-3.1719-16.496-4.8398-1.5742-0.63672-3.3672-0.38672-4.7109 0.65234-0.66016 0.52344-1.1836 1.2031-1.5234 1.9727-3.8203 8.2695-7.6445 16.543-11.477 24.812-0.11719 0.25781-0.22656 0.51172-0.32422 0.78125h-0.003906c-0.66406 1.8438-0.023437 3.9062 1.5742 5.0469 3.7031 2.4492 7.4297 4.8594 11.141 7.3008l7.9023 5.1758c0.24609 0.16797 0.44531 0.30469 0.38672 0.70313-0.61328 4.1719-0.78516 8.3945-0.51562 12.602 0.046874 0.27734-0.11328 0.54688-0.375 0.64453-2.3125 1.2148-4.6016 2.4414-6.9141 3.6562-3.9492 2.0859-7.9609 4.1172-11.902 6.2344v-0.003906c-2.0117 1.0078-3.0352 3.2891-2.4609 5.4609 0.80469 3.7031 1.9023 7.3359 3.2812 10.867 2.1719 5.668 4.4531 11.301 6.7188 16.941h-0.003906c0.85156 2.082 3.1133 3.2188 5.2969 2.6562l21.473-4.7305c0.26562-0.082031 0.55469 0.027344 0.69922 0.26563 2.3438 2.9453 4.9062 5.7109 7.668 8.2656 0.25391 0.19141 0.34766 0.52734 0.22656 0.82031-0.53516 1.7383-0.98828 3.4883-1.5312 5.2344-1.6289 5.6094-3.2383 11.23-4.8906 16.793-0.34766 1.082-0.21484 2.2656 0.36719 3.2422 0.53516 0.90625 1.3477 1.6211 2.3203 2.0352l25.07 11.598c2.3594 1.0977 4.207 0.72266 5.75-1.3711 2.2109-2.9648 4.375-6.0352 6.4492-9.1289 2.1914-3.2891 4.2461-6.668 6.3516-10.016v-0.003906c0.125-0.26563 0.42187-0.41016 0.71094-0.34375 3.7539 0.46094 7.5391 0.60547 11.32 0.43359 0.36328-0.066406 0.72266 0.14453 0.84766 0.49219 3.1875 6.2617 6.3867 12.52 9.6016 18.77 0.84375 2.1328 3.1016 3.3477 5.3438 2.875l0.78125-0.10938c3.3164-0.63672 6.5703-1.5625 9.7305-2.7578 6.2031-2.0898 12.266-4.5742 18.156-7.4375 2.1016-0.9375 3.1836-3.293 2.5273-5.5-0.43359-1.6875-0.89062-3.3672-1.2734-5.0781-1.207-5.3047-2.3789-10.609-3.5742-15.914h-0.003906c-0.10938-0.30078 0.015625-0.64062 0.29688-0.79688 0.71875-0.51172 1.4062-1.0625 2.0664-1.6523 2.168-1.9766 4.3164-3.9766 6.4492-6.0039 0.19531-0.25391 0.53516-0.34375 0.82812-0.21875 0.63281 0.22656 1.293 0.375 1.9766 0.5625l18.391 5.375c0.71484 0.23828 1.4375 0.43359 2.1758 0.58203 2.0234 0.18359 3.9375-0.96094 4.7305-2.8359 3.0742-6.6367 6.1484-13.277 9.2148-19.914 0.82031-1.7695 1.6602-3.5352 2.4492-5.3125 0.97266-1.9688 0.34766-4.3477-1.4609-5.5898-2.9023-1.9766-5.8359-3.8711-8.75-5.8086-3.3711-2.2305-6.7461-4.4648-10.125-6.6953v-0.003906c-0.33203-0.17188-0.5-0.54688-0.40625-0.90625 0.48828-4.0391 0.63672-8.1094 0.44531-12.172-0.0625-0.36719 0.13672-0.72656 0.48438-0.86719 4.5508-2.3438 9.0898-4.707 13.621-7.082 1.6797-0.87891 3.3398-1.7969 5.0078-2.6758 1.9688-1.0117 3-3.2305 2.5-5.3867-0.49219-1.6484-0.80859-3.3594-1.3047-5.0078-2.4297-7.6445-5.4922-15.102-8.5352-22.57zm-70.992 94.234c-12.566 3.7031-26.09 2.2617-37.594-4.0078s-20.047-16.852-23.746-29.418c-3.6992-12.57-2.2539-26.094 4.0195-37.594 6.2734-11.504 16.859-20.043 29.43-23.738 12.57-3.6953 26.09-2.2461 37.59 4.0312 11.5 6.2773 20.035 16.863 23.727 29.438 3.6914 12.559 2.2422 26.07-4.0273 37.562-6.2656 11.492-16.84 20.027-29.398 23.727z"/>
  <path d="m492.66 221.11c23.152 2.9648 44.379-12.711 47.414-34.988 3.0312-22.273-13.266-42.73-36.441-45.684-23.172-2.9531-44.352 12.672-47.414 34.984-3.0586 22.316 13.297 42.73 36.441 45.688zm10.41-76.383c20.684 2.6367 35.262 20.922 32.547 40.824-2.7148 19.902-21.73 33.91-42.375 31.262-20.645-2.6484-35.262-20.922-32.547-40.824 2.7148-19.906 21.691-33.902 42.375-31.266z"/>
  <path d="m499.21 149.71c-17.781-0.58203-32.754 12.84-33.328 30.008-0.57422 17.168 13.402 31.539 31.234 32.121 17.828 0.58203 32.754-12.84 33.328-30.008 0.57422-17.164-13.402-31.539-31.234-32.121zm-0.51172 48.074-0.1875 5.5898-4.6211-0.14844 0.17969-5.2656-0.003906 0.003907c-3.1914-0.13672-6.3008-1.0625-9.0469-2.6875l1.6992-5.0469c2.6289 1.6133 5.6289 2.5352 8.7109 2.6758 3.5469 0.11719 6.0352-1.4805 6.1133-4.0898 0.078126-2.4414-1.8359-4.0781-5.9258-5.6797-5.8477-2.2539-9.5898-4.9375-9.4219-10.027 0.15625-4.6641 3.6641-8.1406 9.3828-8.8906l0.17969-5.3125 4.6211 0.14844-0.16797 5.0469c2.6875 0.11719 5.3203 0.8125 7.7148 2.0469l-1.6875 4.9375h-0.003906c-2.3398-1.2734-4.9414-1.9922-7.6055-2.0938-3.9492-0.12891-5.4219 1.7773-5.4805 3.625-0.078125 2.2227 1.9062 3.5352 6.6367 5.543 6.2344 2.4883 8.9609 5.5 8.793 10.332-0.21094 4.5625-3.668 8.5234-9.8789 9.293z"/>
  <path d="m595.68 407.85c0.58594-1.25 0.58594-2.6992 0-3.9492-0.46484-0.87891-1.1758-1.5977-2.0469-2.0742-4.1484-2.7148-8.2773-5.4609-12.418-8.1992l-5.6016-3.7148h0.003906c0.48828-3.8516 0.69141-7.7344 0.61328-11.617 0.027344-0.21484 0.15234-0.40625 0.33594-0.52344 0.85938-0.49219 1.7383-0.98828 2.6172-1.4141l15.805-8.4648c0.67969-0.36719 1.3828-0.69141 2.0234-1.1172v0.003906c1.5117-1.1523 2.0781-3.168 1.3828-4.9375-3.0508-8.6523-6.1094-17.301-9.1875-25.938v-0.003906c-0.48828-2.082-2.5469-3.3945-4.6406-2.9609-3.0625 0.38672-6.1133 0.80859-9.1367 1.3828-4.4336 0.84766-8.8906 1.8477-13.266 2.7656-0.23438 0.023437-0.46875-0.058594-0.63281-0.22656-2.3086-2.9961-4.8555-5.7969-7.6172-8.3789-0.21484-0.16797-0.28516-0.46484-0.16797-0.71094 1.4805-4.4453 2.9531-8.8945 4.4141-13.344 0.75-2.2812 1.5195-4.5625 2.2539-6.8555 0.76953-1.8398 0.125-3.9688-1.5312-5.0781-0.98828-0.75-2.043-1.5117-3.1211-2.1641-4.6172-2.7031-9.4023-5.1055-14.332-7.1914-3.0898-1.3516-6.2617-2.5391-9.4219-3.7227-0.81641-0.28125-1.6797-0.39844-2.5391-0.34375-1.3711 0.17578-2.5547 1.0547-3.1133 2.3203-0.73047 1.1836-1.4141 2.4102-2.1719 3.5742-3.043 4.707-6.0938 9.4062-9.1562 14.094v0.003906c-0.12109 0.26953-0.41406 0.41797-0.70313 0.35547-3.7891-0.60938-7.6289-0.84375-11.469-0.70312-0.27344 0.035156-0.53516-0.13281-0.62109-0.39453-0.71094-1.3828-1.4531-2.7656-2.1836-4.1406-2.6367-4.9375-5.3242-9.8789-7.9023-14.887v0.003906c-0.63281-1.5391-2.0352-2.625-3.6836-2.8555-0.82031-0.097656-1.6562 0.003907-2.4297 0.29688l-25.258 8.9492c-0.25781 0.089844-0.51172 0.19922-0.76953 0.30469-1.75 0.79297-2.7617 2.6562-2.4688 4.5547 0.82031 4.2773 1.6797 8.5352 2.5195 12.84l1.7773 9.0781c0.058594 0.28516 0.097657 0.52344-0.22656 0.75-3.3438 2.4297-6.4219 5.1992-9.1875 8.2695-0.16406 0.22266-0.46094 0.29688-0.71094 0.17578l-7.2891-2.3398c-4.1797-1.3516-8.3359-2.7578-12.523-4.0781h-0.003906c-2.0742-0.72656-4.375 0.097656-5.5195 1.9727-2.0469 3.1016-3.8438 6.3594-5.375 9.7422-2.4883 5.4141-4.8789 10.867-7.2812 16.309-0.875 2.0234-0.12109 4.3867 1.7695 5.5312l18.016 11.852c0.24219 0.12891 0.36719 0.40625 0.29688 0.67188-0.46484 3.6602-0.64844 7.3477-0.55078 11.035 0.042968 0.30859-0.13281 0.60938-0.42578 0.71875-1.582 0.82031-3.1523 1.668-4.7227 2.5078-5.0469 2.707-10.094 5.4219-15.152 8.1094v0.003907c-0.97656 0.51172-1.6914 1.4141-1.9766 2.4766-0.26953 1-0.21094 2.0625 0.16797 3.0234 3.0156 8.5 6.0273 17.008 9.0391 25.523 0.84766 2.3984 2.3789 3.4375 4.9375 3.0898 3.6172-0.50391 7.2305-1.0586 10.816-1.7383 3.8047-0.71094 7.5859-1.5898 11.371-2.4102v0.003907c0.27734-0.097657 0.58203 0.015625 0.73047 0.26562 2.2461 2.9492 4.7383 5.707 7.4492 8.2383 0.29297 0.21094 0.39062 0.60156 0.23438 0.92969-2.2109 6.5273-4.4102 13.055-6.5898 19.586h0.003906c-0.92188 2.0547-0.22656 4.4727 1.6484 5.7188l0.61328 0.46484c2.7188 1.8906 5.5938 3.543 8.5938 4.9375 5.7109 2.9219 11.605 5.4688 17.641 7.6367 2.0977 0.83594 4.4844-0.007812 5.5898-1.9766 0.87891-1.4609 1.7578-2.9648 2.6875-4.3672 2.8945-4.4766 5.8086-8.8906 8.7031-13.402 0.14062-0.27734 0.46094-0.42188 0.76172-0.33594 0.84766 0.15234 1.707 0.25781 2.5664 0.31641 2.875 0.15625 5.75 0.28516 8.6328 0.40625 0.3125-0.039063 0.60938 0.14062 0.72266 0.43359 0.27734 0.60156 0.62109 1.1641 0.9375 1.75l8.832 16.574c0.32031 0.66016 0.67969 1.3008 1.0742 1.9141 1.2578 1.5508 3.3711 2.1094 5.2266 1.3828l20.27-7.1719c1.7969-0.64062 3.6055-1.2539 5.4023-1.918v0.003907c2.0625-0.64844 3.3242-2.7188 2.9648-4.8516-0.62109-3.3789-1.2734-6.7461-1.9258-10.113-0.74219-3.8906-1.4805-7.793-2.2422-11.684-0.10547-0.35156 0.039063-0.72656 0.35547-0.91016 3.1602-2.4219 6.1172-5.1055 8.8281-8.0195 0.21875-0.32422 0.64062-0.43359 0.98828-0.25781 4.7617 1.582 9.5273 3.1484 14.293 4.7031 1.7695 0.57422 3.5469 1.1055 5.3047 1.6797v-0.003906c2.0664 0.6875 4.3359-0.12891 5.4922-1.9727 0.82031-1.4805 1.7969-2.8633 2.6172-4.3359 3.6758-6.9258 6.8281-14.188 9.9688-21.438zm-114.66 14.73c-11.203-6.2734-19.453-16.738-22.938-29.094-3.4883-12.352-1.9219-25.586 4.3516-36.789 6.2695-11.199 16.734-19.449 29.09-22.934s25.59-1.918 36.789 4.3555c11.203 6.2695 19.449 16.734 22.934 29.09 3.4844 12.355 1.918 25.59-4.3555 36.789-6.2695 11.199-16.734 19.449-29.09 22.934-12.352 3.4844-25.582 1.918-36.781-4.3516z"/>
  <path d="m500.21 420.02c22.719 2.3711 43.195-13.465 45.664-35.352 2.4688-21.891-13.969-41.566-36.715-43.891-22.75-2.3203-43.195 13.465-45.664 35.352-2.4727 21.891 13.965 41.52 36.715 43.891zm8.4648-75.07c20.328 2.1133 35.016 19.695 32.812 39.266-2.2031 19.562-20.465 33.711-40.812 31.637-20.352-2.0742-35.008-19.758-32.797-39.305 2.2148-19.547 20.477-33.715 40.805-31.598z"/>
  <path d="m505.01 349.92c-17.484-0.16797-31.797 13.336-31.973 30.156-0.17969 16.82 13.828 30.621 31.324 30.758 17.492 0.13672 31.797-13.336 31.973-30.156 0.17578-16.82-13.852-30.59-31.324-30.758zm0.60156 47.168-0.058594 5.4805h-4.5352l0.058594-5.1562c-3.1172-0.066406-6.168-0.90234-8.8906-2.4297l1.5391-4.9375h0.003906c2.6133 1.5195 5.5703 2.3516 8.5938 2.4219 3.4766 0 5.8789-1.5898 5.9258-4.1484 0-2.3906-1.8984-3.9492-5.9258-5.4336-5.7773-2.0742-9.5117-4.6641-9.4648-9.6094 0-4.5742 3.3984-8.0508 8.9883-8.9609l0.058594-5.2148h4.5352l-0.050781 4.9375h0.003906c2.6367 0.050782 5.2305 0.67578 7.6055 1.8281l-1.5391 4.8789h-0.003906c-2.3203-1.1953-4.8867-1.8398-7.4961-1.875-3.8711 0-5.2734 1.8672-5.2852 3.6758 0 2.1836 1.9766 3.4258 6.6289 5.2734 6.1641 2.293 8.8906 5.1953 8.8906 9.8789-0.22656 4.4531-3.5352 8.4023-9.582 9.3906z"/>
  <use x="70" y="574.816406" xlink:href="#w"/>
  <use x="73.625" y="574.816406" xlink:href="#b"/>
  <use x="76.058594" y="574.816406" xlink:href="#a"/>
  <use x="79.410156" y="574.816406" xlink:href="#l"/>
  <use x="82.742187" y="574.816406" xlink:href="#c"/>
  <use x="85.105469" y="574.816406" xlink:href="#a"/>
  <use x="88.453125" y="574.816406" xlink:href="#k"/>
  <use x="93.707031" y="574.816406" xlink:href="#j"/>
  <use x="97.242188" y="574.816406" xlink:href="#i"/>
  <use x="102.183594" y="574.816406" xlink:href="#h"/>
  <use x="105.554688" y="574.816406" xlink:href="#b"/>
  <use x="107.992188" y="574.816406" xlink:href="#v"/>
  <use x="109.683594" y="574.816406" xlink:href="#u"/>
  <use x="114.6875" y="574.816406" xlink:href="#t"/>
  <use x="118.246094" y="574.816406" xlink:href="#g"/>
  <use x="121.171875" y="574.816406" xlink:href="#f"/>
  <use x="124.6875" y="574.816406" xlink:href="#s"/>
  <use x="128.023437" y="574.816406" xlink:href="#e"/>
  <use x="130.171875" y="574.816406" xlink:href="#a"/>
  <use x="133.519531" y="574.816406" xlink:href="#b"/>
  <use x="70" y="579.753906" xlink:href="#e"/>
  <use x="72.148437" y="579.753906" xlink:href="#b"/>
  <use x="74.585938" y="579.753906" xlink:href="#d"/>
  <use x="77.976562" y="579.753906" xlink:href="#r"/>
  <use x="84.84375" y="579.753906" xlink:href="#c"/>
  <use x="87.203125" y="579.753906" xlink:href="#f"/>
  <use x="90.71875" y="579.753906" xlink:href="#a"/>
  <use x="95.789062" y="579.753906" xlink:href="#q"/>
  <use x="99.921875" y="579.753906" xlink:href="#d"/>
  <use x="103.316406" y="579.753906" xlink:href="#p"/>
  <use x="106.832031" y="579.753906" xlink:href="#o"/>
  <use x="112.066406" y="579.753906" xlink:href="#n"/>
  <use x="115.6875" y="579.753906" xlink:href="#b"/>
  <use x="118.121094" y="579.753906" xlink:href="#d"/>
  <use x="121.515625" y="579.753906" xlink:href="#m"/>
  <use x="123.207031" y="579.753906" xlink:href="#a"/>
  <use x="126.558594" y="579.753906" xlink:href="#g"/>
  <use x="129.484375" y="579.753906" xlink:href="#c"/>
 </g>
</svg>
