<?xml version="1.0" encoding="UTF-8"?>
<svg width="900pt" height="900pt" fill="#FFF" version="1.1" viewBox="0 0 680 600" xmlns="http://www.w3.org/2000/svg">
 <g>
  <path d="m265.52 433.97c-5.8281 0.082031-11.379 2.4766-15.441 6.6562-4.0586 4.1797-6.293 9.8008-6.2031 15.629-0.035156 5.8477 2.2656 11.465 6.3906 15.609 4.1211 4.1445 9.7266 6.4766 15.574 6.4766s11.453-2.332 15.574-6.4766c4.1211-4.1445 6.4219-9.7617 6.3906-15.609 0.089843-5.9375-2.2305-11.656-6.4297-15.855-4.1992-4.1992-9.918-6.5195-15.855-6.4297zm0 10.254c3.2266-0.066406 6.3398 1.1719 8.6367 3.4375 2.2969 2.2695 3.5781 5.3672 3.5547 8.5938 0.09375 3.2266-1.125 6.3516-3.375 8.6641-2.2461 2.3125-5.3359 3.6172-8.5625 3.6172-3.2266 0-6.3164-1.3047-8.5664-3.6172-2.2461-2.3125-3.4648-5.4375-3.3711-8.6641-0.050782-6.5312 5.1523-11.891 11.684-12.031z"/>
  <path d="m276.64 364.31c-8.8047-0.003906-16.953 4.6406-21.445 12.211l-16.953 28.598c-5.5859 10.016-8.8047 21.18-9.4102 32.629v15.586c0.51172 4.6914 4.5352 8.2031 9.25 8.0664-1.5273-8.2422 0.6875-16.738 6.0469-23.188 5.3633-6.4492 13.312-10.176 21.695-10.176 8.3867 0 16.336 3.7266 21.699 10.176 5.3594 6.4492 7.5742 14.945 6.043 23.188h123.48c-1.5273-8.2422 0.69141-16.738 6.0547-23.184s13.316-10.172 21.699-10.168c8.3867 0.003907 16.336 3.7344 21.691 10.184 5.3594 6.4492 7.5703 14.949 6.0391 23.191h9.7773-0.003906c5.1602 0 9.3438-4.1797 9.3438-9.3398v-8.6602c0.003906-9.918-3.9336-19.434-10.949-26.445s-16.527-10.949-26.445-10.945h-20.504c-1.4648-0.007812-2.8789-0.55078-3.9688-1.5273l-44.816-40.195zm6.7891 12.465v-0.003906h0.44141 29.164v22.285c-0.003906 0.51562-0.21875 1.0039-0.59375 1.3516s-0.87891 0.52734-1.3906 0.49609l-43.887-2.5547v0.003907c-0.65234-0.039063-1.2383-0.41406-1.5469-0.99219-0.30469-0.57812-0.28906-1.2734 0.046874-1.8359l7.4961-12.648v0.003906c2.1602-3.6523 6.0352-5.957 10.273-6.1094zm38.961 0h41.336v-0.003906c4.6016 0 9.0391 1.6953 12.465 4.7656l23.652 21.215v-0.003906c0.59375 0.53125 0.78516 1.3828 0.48047 2.1172-0.30859 0.73437-1.0508 1.1953-1.8477 1.1445l-74.332-4.332h0.003907c-0.99219-0.054688-1.7656-0.875-1.7656-1.8711z"/>
  <path d="m444.51 433.97c-5.8281 0.082031-11.383 2.4766-15.441 6.6562-4.0625 4.1797-6.2969 9.8008-6.2109 15.629 0 7.8477 4.1875 15.102 10.984 19.023 6.7969 3.9258 15.172 3.9258 21.969 0 6.7969-3.9219 10.984-11.176 10.984-19.023 0.089843-5.9375-2.2305-11.656-6.4297-15.855-4.1992-4.1992-9.918-6.5195-15.855-6.4297zm0 10.254c3.2266-0.066406 6.3398 1.1719 8.6367 3.4375 2.2969 2.2695 3.5781 5.3672 3.5547 8.5938 0.066406 3.2109-1.1602 6.3125-3.4062 8.6055-2.2461 2.293-5.3242 3.5859-8.5352 3.5859-3.2109 0-6.2852-1.293-8.5312-3.5859-2.2461-2.293-3.4766-5.3945-3.4102-8.6055-0.046875-6.5312 5.1602-11.895 11.691-12.031z"/>
  <path d="m211.68 231.39h-32.129c0 9.8359 3.1367 19.418 8.9453 27.355 5.8125 7.9375 14.004 13.816 23.383 16.785v19.414h32.621v-21.18c10.668-4.6953 19.176-13.242 23.816-23.934 4.6445-10.688 5.0859-22.738 1.2344-33.742-3.8516-11-11.711-20.145-22.008-25.605l-25.188-13.379c-4.7266-2.1406-7.9023-6.6914-8.2852-11.863-0.38281-5.1719 2.0938-10.141 6.4531-12.949 4.3555-2.8125 9.9023-3.0156 14.457-0.53516 4.5547 2.4844 7.3867 7.2539 7.3906 12.441h32.129-0.003906c0-9.4141-2.8711-18.605-8.2266-26.348-5.3555-7.7383-12.945-13.664-21.758-16.98v-20.223h-32.621v20.223c-11.18 4.207-20.305 12.574-25.457 23.355-5.1562 10.777-5.9414 23.129-2.1992 34.477 3.7422 11.348 11.727 20.805 22.281 26.402l25.98 13.77v-0.003906c4.5117 2.3945 7.3906 7.0312 7.5273 12.137 0.14062 5.1055-2.4805 9.8906-6.8555 12.523-4.3789 2.6328-9.832 2.707-14.281 0.19531-4.4453-2.5156-7.1953-7.2266-7.1953-12.336z"/>
  <path d="m432.27 117c2.2461 0.015625 4.0586 1.8398 4.0586 4.082v12.48c-0.007813 0.49219 0.28125 0.94531 0.73438 1.1406 0.45312 0.19922 0.98047 0.10547 1.3359-0.23828l35.953-32.863c1.5586-1.4258 3.9492-1.4258 5.5117 0l77.723 71.047-0.003906 0.003906c1.2422 1.1328 1.6602 2.9102 1.0586 4.4805-0.60547 1.5703-2.1094 2.6055-3.793 2.6172h-155.45c-1.6797-0.011719-3.1836-1.0469-3.7891-2.6172-0.60547-1.5703-0.1875-3.3477 1.0547-4.4805l18.965-17.332v-0.003906c0.26953-0.22266 0.42969-0.55078 0.44141-0.90234v-33.332c0-1.0859 0.43359-2.125 1.2031-2.8906 0.76953-0.76953 1.8125-1.1953 2.8984-1.1914z"/>
  <path d="m548.19 187.1h-141.44v90.426c0 0.32422 0.12891 0.64062 0.36328 0.87109 0.23047 0.23047 0.54297 0.35547 0.87109 0.35547h28.672v-44.77c0.042969-9.2031 4.9766-17.688 12.953-22.277 7.9766-4.5898 17.793-4.5898 25.77 0 7.9766 4.5898 12.91 13.074 12.953 22.277v44.766h21.562v-28.191 0.003906c0-5.1211 4.1523-9.2734 9.2734-9.2734 5.1172 0 9.2695 4.1523 9.2695 9.2734v28.191h19.762c0.32812 0 0.64062-0.125 0.875-0.35547 0.23047-0.23047 0.35938-0.54688 0.35938-0.87109v-89.199c0-0.32812-0.12891-0.64062-0.35938-0.87109-0.23438-0.23047-0.54688-0.35938-0.875-0.35547z"/>
  <path d="m344.18 23.355c-58.996 1.3398-115.73 22.961-160.64 61.234-44.918 38.27-75.277 90.848-85.965 148.88-10.688 58.035-1.0508 117.98 27.285 169.74l219.32-126.6zm-11.668 12.238v234.27l-202.89 117.14v0.003906c-23.418-48.215-30.379-102.77-19.816-155.32s38.062-100.18 78.289-135.6c40.227-35.418 90.957-56.672 144.42-60.496z"/>
  <path d="m350.01 286.7-219.32 126.62c30.656 50.418 77.75 88.734 133.35 108.5 55.602 19.762 116.31 19.762 171.91 0 55.602-19.762 102.7-58.078 133.35-108.5zm0 13.469 202.87 117.14c-30.047 44.379-73.812 77.68-124.6 94.805-50.781 17.125-105.78 17.125-156.56 0-50.785-17.125-94.551-50.426-124.6-94.805z"/>
  <path d="m355.85 23.355v253.25l219.3 126.6h-0.003906c28.336-51.758 37.973-111.7 27.285-169.73-10.684-58.031-41.039-110.61-85.949-148.88-44.91-38.27-101.64-59.898-160.63-61.242zm11.664 12.238c53.457 3.8281 104.18 25.082 144.41 60.504 40.223 35.422 67.719 83.055 78.277 135.6 10.562 52.543 3.6016 107.1-19.816 155.31l-202.87-117.14z"/>
 </g>
</svg>
